<svg width="164" height="24" viewBox="0 0 164 24" fill="none" xmlns="http://www.w3.org/2000/svg">
<g id="Layer_1" clip-path="url(#clip0_248_22753)">
<path id="Vector" d="M0 23.6138V0.643616H6.42219V23.6138H0ZM5.19871 6.00112V0.643616H16.4707V5.99668H5.19871V6.00112ZM5.19871 15.4511V10.098H16.4353V15.4511H5.19871Z" fill="currentColor"/>
<path id="Vector_2" d="M18.6836 23.6138V7.74108H24.9777V23.6138H18.6836ZM24.9777 15.0338L22.0581 12.4195C22.8708 10.6972 23.816 9.43666 24.8982 8.62882C25.9803 7.82097 27.3319 7.41705 28.9573 7.41705C29.6861 7.41705 30.3089 7.50139 30.8345 7.6745C31.3601 7.84761 31.7797 8.09617 32.1022 8.41576L28.5731 13.4492C28.4229 13.2761 28.202 13.1341 27.9149 13.0142C27.6278 12.8944 27.2877 12.8367 26.9035 12.8367C26.263 12.8367 25.7816 13.0231 25.4591 13.4004C25.1367 13.7777 24.9777 14.3192 24.9777 15.0294V15.0338Z" fill="currentColor"/>
<path id="Vector_3" d="M40.6223 24C38.8423 24 37.2831 23.6494 35.9404 22.9525C34.5976 22.2556 33.5464 21.2747 32.7911 20.0185C32.0358 18.7624 31.6604 17.3153 31.6604 15.6775C31.6604 14.0396 32.027 12.6325 32.7602 11.3853C33.4934 10.138 34.5005 9.15259 35.7814 8.43352C37.0623 7.71445 38.511 7.35492 40.1232 7.35492C41.7354 7.35492 43.1179 7.69226 44.3414 8.37138C45.5604 9.0505 46.5145 9.9915 47.2079 11.1944C47.9014 12.3973 48.2459 13.7733 48.2459 15.3224C48.2459 15.6464 48.2282 15.9837 48.1973 16.3388C48.1664 16.6939 48.1002 17.1067 47.9941 17.5817L34.2266 17.6793V13.8088L45.7283 13.7111L42.9059 15.42C42.9059 14.5589 42.8087 13.8532 42.6099 13.3072C42.4112 12.7568 42.1197 12.344 41.7265 12.0644C41.3334 11.7847 40.8387 11.6427 40.238 11.6427C39.6373 11.6427 39.0808 11.8025 38.6259 12.1265C38.1709 12.4505 37.8264 12.9122 37.5879 13.5114C37.3494 14.115 37.2301 14.843 37.2301 15.7041C37.2301 16.5652 37.3582 17.3242 37.6188 17.9146C37.875 18.5049 38.2549 18.9532 38.7495 19.255C39.2442 19.5569 39.867 19.7078 40.6091 19.7078C41.3511 19.7078 41.9695 19.5835 42.5172 19.3349C43.0649 19.0864 43.564 18.6958 44.0189 18.1587L47.0578 21.288C46.2936 22.1935 45.3749 22.8681 44.2972 23.3209C43.2239 23.7736 41.9916 24 40.6091 24H40.6223Z" fill="currentColor"/>
<path id="Vector_4" d="M58.4622 24C56.6821 24 55.123 23.6494 53.7802 22.9525C52.4375 22.2556 51.3863 21.2747 50.631 20.0185C49.8757 18.7624 49.5002 17.3153 49.5002 15.6775C49.5002 14.0396 49.8668 12.6325 50.6001 11.3853C51.3333 10.138 52.3403 9.15259 53.6212 8.43352C54.9021 7.71445 56.3509 7.35492 57.963 7.35492C59.5752 7.35492 60.9577 7.69226 62.1812 8.37138C63.4003 9.0505 64.3543 9.9915 65.0478 11.1944C65.7412 12.3973 66.0858 13.7733 66.0858 15.3224C66.0858 15.6464 66.0681 15.9837 66.0372 16.3388C66.0062 16.6939 65.94 17.1067 65.834 17.5817L52.0665 17.6793V13.8088L63.5681 13.7111L60.7457 15.42C60.7457 14.5589 60.6485 13.8532 60.4498 13.3072C60.251 12.7568 59.9595 12.344 59.5664 12.0644C59.1733 11.7847 58.6786 11.6427 58.0779 11.6427C57.4772 11.6427 56.9207 11.8025 56.4657 12.1265C56.0108 12.4505 55.6663 12.9122 55.4277 13.5114C55.1892 14.115 55.07 14.843 55.07 15.7041C55.07 16.5652 55.1981 17.3242 55.4587 17.9146C55.7148 18.5049 56.0947 18.9532 56.5894 19.255C57.0841 19.5569 57.7069 19.7078 58.4489 19.7078C59.191 19.7078 59.8093 19.5835 60.357 19.3349C60.9047 19.0864 61.4038 18.6958 61.8588 18.1587L64.8976 21.288C64.1335 22.1935 63.2148 22.8681 62.137 23.3209C61.0637 23.7736 59.8314 24 58.4489 24H58.4622Z" fill="currentColor"/>
<path id="Vector_5" d="M71.2581 23.6138L64.0674 0.643616H70.4542L75.5249 18.3229H72.5699L77.5831 0.643616H82.879L87.8878 18.3229H84.9682L90.0388 0.643616H96.3639L89.1731 23.6138H83.8463L78.8375 5.96561H81.5981L76.5893 23.6138H71.2625H71.2581Z" fill="currentColor"/>
<path id="Vector_6" d="M110.273 11.3897C109.544 10.1424 108.55 9.15704 107.291 8.43798C106.032 7.71891 104.592 7.35938 102.976 7.35938C101.359 7.35938 99.915 7.71891 98.6429 8.43798C97.3752 9.15704 96.3814 10.1424 95.6615 11.3897C94.9415 12.637 94.5837 14.0574 94.5837 15.6464C94.5837 17.2355 94.9459 18.6692 95.6791 19.9386C96.4079 21.2081 97.4061 22.2024 98.6782 22.9214C99.9459 23.6405 101.39 24 103.011 24C104.632 24 106.068 23.6405 107.327 22.9214C108.585 22.2024 109.575 21.2081 110.295 19.9386C111.015 18.6692 111.372 17.2399 111.372 15.6464C111.372 14.0529 111.006 12.637 110.277 11.3897H110.273ZM102.976 18.5227C101.412 18.5227 100.145 17.2488 100.145 15.6775C100.145 14.1062 101.412 12.8323 102.976 12.8323C104.539 12.8323 105.807 14.1062 105.807 15.6775C105.807 17.2488 104.539 18.5227 102.976 18.5227Z" fill="currentColor"/>
<path id="Vector_7" d="M113.921 23.6138V7.74108H120.215V23.6138H113.921ZM120.215 15.0338L117.296 12.4195C118.108 10.6972 119.054 9.43666 120.136 8.62882C121.218 7.82097 122.569 7.41705 124.195 7.41705C124.924 7.41705 125.546 7.50139 126.072 7.6745C126.598 7.84761 127.017 8.09617 127.34 8.41576L123.811 13.4492C123.66 13.2761 123.44 13.1341 123.152 13.0142C122.865 12.8944 122.525 12.8367 122.141 12.8367C121.501 12.8367 121.019 13.0231 120.697 13.4004C120.374 13.7777 120.215 14.3192 120.215 15.0294V15.0338Z" fill="currentColor"/>
<path id="Vector_8" d="M128.174 23.6138V0H134.468V23.6138H128.174Z" fill="currentColor"/>
<path id="Vector_9" d="M144.323 23.9379C142.759 23.9379 141.394 23.5828 140.228 22.8726C139.062 22.1624 138.152 21.1903 137.499 19.9519C136.845 18.7135 136.518 17.2887 136.518 15.6775C136.518 14.0662 136.845 12.6325 137.499 11.3852C138.152 10.138 139.062 9.1659 140.228 8.46458C141.394 7.76771 142.759 7.41705 144.323 7.41705C145.264 7.41705 146.151 7.57241 146.986 7.88312C147.821 8.19382 148.532 8.62882 149.12 9.18809C149.707 9.74737 150.078 10.391 150.228 11.1234V19.8987C150.078 20.631 149.707 21.3013 149.12 21.9138C148.532 22.5264 147.821 23.0146 146.986 23.383C146.151 23.747 145.264 23.9334 144.323 23.9334V23.9379ZM145.476 18.3895C146.01 18.3895 146.469 18.2785 146.854 18.0522C147.238 17.8258 147.543 17.5106 147.768 17.1023C147.993 16.6939 148.104 16.219 148.104 15.6819C148.104 15.1448 147.998 14.6788 147.781 14.2793C147.569 13.8798 147.26 13.5646 146.867 13.3294C146.469 13.0941 146.014 12.9743 145.502 12.9743C144.99 12.9743 144.535 13.0941 144.137 13.3294C143.74 13.5646 143.426 13.8887 143.192 14.297C142.958 14.7054 142.839 15.167 142.839 15.6819C142.839 16.1968 142.949 16.6628 143.174 17.0712C143.4 17.4796 143.713 17.8036 144.12 18.0388C144.526 18.2741 144.976 18.3939 145.467 18.3939L145.476 18.3895ZM154.049 23.6138H147.918V19.3571L148.784 15.4866L147.755 11.6471V0H154.049V23.6138Z" fill="currentColor"/>
<path id="Vector_10" d="M160.533 24C159.526 24 158.691 23.6538 158.028 22.9658C157.366 22.2778 157.035 21.4389 157.035 20.4491C157.035 19.4593 157.366 18.5893 158.028 17.9013C158.691 17.2133 159.526 16.8671 160.533 16.8671C161.54 16.8671 162.366 17.2133 163.02 17.9013C163.673 18.5893 164 19.4371 164 20.4491C164 21.4611 163.673 22.2778 163.02 22.9658C162.366 23.6538 161.536 24 160.533 24Z" fill="currentColor"/>
</g>
<defs>
<clipPath id="clip0_248_22753">
<rect width="164" height="24" fill="white"/>
</clipPath>
</defs>
</svg>
